<svg width="471" height="134" viewBox="0 0 471 134" fill="none" xmlns="http://www.w3.org/2000/svg">
<mask id="path-1-inside-1_1_2947" fill="white">
<path fill-rule="evenodd" clip-rule="evenodd" d="M55.1282 111.253C24.6817 111.253 0 86.5717 0 56.1253C0 25.6788 24.6817 0.99707 55.1282 0.99707H415.463C445.91 0.99707 470.592 25.6788 470.592 56.1253C470.592 86.5717 445.91 111.253 415.463 111.253H255.787C253.94 111.253 252.243 112.272 251.374 113.902L242.412 130.718C240.531 134.249 235.469 134.249 233.588 130.718L224.626 113.902C223.757 112.272 222.06 111.253 220.213 111.253H55.1282Z"/>
</mask>
<path d="M242.412 130.718L246.825 133.07L246.825 133.07L242.412 130.718ZM233.588 130.718L229.175 133.07L229.175 133.07L233.588 130.718ZM224.626 113.902L220.213 116.253L224.626 113.902ZM251.374 113.902L255.787 116.253L251.374 113.902ZM-5 56.1253C-5 89.3332 21.9203 116.253 55.1282 116.253V106.253C27.4432 106.253 5 83.8103 5 56.1253H-5ZM55.1282 -4.00293C21.9203 -4.00293 -5 22.9174 -5 56.1253H5C5 28.4402 27.4431 5.99707 55.1282 5.99707V-4.00293ZM415.463 -4.00293H55.1282V5.99707H415.463V-4.00293ZM475.592 56.1253C475.592 22.9174 448.671 -4.00293 415.463 -4.00293V5.99707C443.148 5.99707 465.592 28.4402 465.592 56.1253H475.592ZM415.463 116.253C448.671 116.253 475.592 89.3331 475.592 56.1253H465.592C465.592 83.8103 443.148 106.253 415.463 106.253V116.253ZM255.787 116.253H415.463V106.253H255.787V116.253ZM246.962 111.55L238 128.366L246.825 133.07L255.787 116.253L246.962 111.55ZM238 128.366C237.992 128.382 237.986 128.389 237.985 128.392C237.983 128.394 237.984 128.393 237.987 128.39C237.99 128.386 237.994 128.382 238 128.378C238.005 128.374 238.01 128.371 238.014 128.369C238.023 128.364 238.027 128.363 238.023 128.364C238.021 128.364 238.018 128.365 238.014 128.366C238.01 128.366 238.005 128.366 238 128.366C237.995 128.366 237.99 128.366 237.986 128.366C237.982 128.365 237.979 128.364 237.977 128.364C237.973 128.363 237.977 128.364 237.986 128.369C237.99 128.371 237.995 128.374 238 128.378C238.006 128.382 238.01 128.386 238.013 128.39C238.016 128.393 238.017 128.394 238.015 128.392C238.014 128.389 238.008 128.382 238 128.366L229.175 133.07C232.939 140.132 243.061 140.132 246.825 133.07L238 128.366ZM238 128.366L229.038 111.55L220.213 116.253L229.175 133.07L238 128.366ZM55.1282 116.253H220.213V106.253H55.1282V116.253ZM229.038 111.55C227.301 108.29 223.907 106.253 220.213 106.253V116.253L220.213 116.253L229.038 111.55ZM255.787 106.253C252.093 106.253 248.699 108.29 246.962 111.55L255.787 116.253L255.787 116.253V106.253Z" fill="#FF5B16" mask="url(#path-1-inside-1_1_2947)"/>
</svg>
