<svg width="24" height="16" viewBox="0 0 24 16" fill="none" xmlns="http://www.w3.org/2000/svg">
<path d="M12 2.81722C16.1345 2.81722 19.8218 4.8992 21.6218 8.19323C19.8218 11.4873 16.1345 13.5692 12 13.5692C7.86545 13.5692 4.17818 11.4873 2.37818 8.19323C4.17818 4.8992 7.86545 2.81722 12 2.81722ZM12 0.862305C6.54545 0.862305 1.88727 3.9022 0 8.19323C1.88727 12.4843 6.54545 15.5242 12 15.5242C17.4545 15.5242 22.1127 12.4843 24 8.19323C22.1127 3.9022 17.4545 0.862305 12 0.862305ZM12 5.74959C13.5055 5.74959 14.7273 6.84434 14.7273 8.19323C14.7273 9.54212 13.5055 10.6369 12 10.6369C10.4945 10.6369 9.27273 9.54212 9.27273 8.19323C9.27273 6.84434 10.4945 5.74959 12 5.74959ZM12 3.79468C9.29455 3.79468 7.09091 5.76914 7.09091 8.19323C7.09091 10.6173 9.29455 12.5918 12 12.5918C14.7055 12.5918 16.9091 10.6173 16.9091 8.19323C16.9091 5.76914 14.7055 3.79468 12 3.79468Z" fill="#95969D"/>
</svg>
